<?xml version="1.0" encoding="iso-8859-1"?>
<!-- Generator: Adobe Illustrator 16.0.0, SVG Export Plug-In . SVG Version: 6.00 Build 0)  -->
<!DOCTYPE svg PUBLIC "-//W3C//DTD SVG 1.1//EN" "http://www.w3.org/Graphics/SVG/1.1/DTD/svg11.dtd">
<svg version="1.1" id="Capa_1" xmlns="http://www.w3.org/2000/svg" xmlns:xlink="http://www.w3.org/1999/xlink" x="0px" y="0px"
	 width="612px" height="612px" viewBox="0 0 612 612" style="enable-background:new 0 0 612 612;" xml:space="preserve">
<g>
	<g id="_x39__19_">
		<g>
			<path d="M316.674,95.089h253.137c23.31,0,42.189-18.88,42.189-42.189c0-23.288-18.88-42.189-42.189-42.189H316.674
				c-23.309,0-42.189,18.901-42.189,42.189C274.485,76.188,293.386,95.089,316.674,95.089z M569.811,516.983H316.674
				c-23.309,0-42.189,18.88-42.189,42.189s18.88,42.189,42.189,42.189h253.137c23.31,0,42.189-18.9,42.189-42.189
				C612,535.885,593.12,516.983,569.811,516.983z M316.674,221.657c0,0,6.223,1.92,14.492-6.392s8.27-21.77,0-30.061L184.727,16.68
				c-4.409-4.43-10.273-6.308-16.032-6.012c-5.78-0.296-11.623,1.582-16.032,6.012L6.202,185.185c-8.269,8.312-8.269,21.77,0,30.06
				c8.27,8.312,15.146,6.392,15.146,6.392h126.568v379.706h42.189V221.636h126.568V221.657z M569.811,390.415H316.674
				c-23.309,0-42.189,18.88-42.189,42.189c0,23.289,18.88,42.189,42.189,42.189h253.137c23.31,0,42.189-18.88,42.189-42.189
				S593.12,390.415,569.811,390.415z M569.811,263.847H316.674c-23.309,0-42.189,18.88-42.189,42.189s18.88,42.189,42.189,42.189
				h253.137c23.31,0,42.189-18.88,42.189-42.189S593.12,263.847,569.811,263.847z M569.811,137.278H443.242
				c-23.31,0-42.189,18.88-42.189,42.189s18.88,42.189,42.189,42.189h126.568c23.31,0,42.189-18.88,42.189-42.189
				S593.12,137.278,569.811,137.278z"/>
		</g>
	</g>
</g>
<g>
</g>
<g>
</g>
<g>
</g>
<g>
</g>
<g>
</g>
<g>
</g>
<g>
</g>
<g>
</g>
<g>
</g>
<g>
</g>
<g>
</g>
<g>
</g>
<g>
</g>
<g>
</g>
<g>
</g>
</svg>
